<?xml version="1.0" standalone="no"?>
<!DOCTYPE svg PUBLIC "-//W3C//DTD SVG 20010904//EN"
 "http://www.w3.org/TR/2001/REC-SVG-20010904/DTD/svg10.dtd">
<svg version="1.0" xmlns="http://www.w3.org/2000/svg"
 width="284.000000pt" height="284.000000pt" viewBox="0 0 284.000000 284.000000"
 preserveAspectRatio="xMidYMid meet">
<metadata>
Created by potrace 1.11, written by Peter Selinger 2001-2013
</metadata>
<g transform="translate(0.000000,284.000000) scale(0.100000,-0.100000)"
fill="#000000" stroke="none">
<path d="M1258 2749 c-500 -58 -927 -413 -1086 -904 -89 -275 -89 -575 0 -850
140 -432 487 -762 916 -871 550 -140 1115 77 1424 546 226 342 284 780 156
1175 -196 606 -774 976 -1410 904z m295 -1085 c43 -21 67 -61 67 -112 0 -61
-61 -142 -221 -296 l-140 -134 36 -71 c19 -39 39 -71 44 -71 5 0 59 23 121 50
135 60 212 84 242 75 54 -17 71 -56 46 -110 -14 -31 -54 -36 -44 -5 3 11 9 29
12 40 5 14 0 22 -18 31 -21 9 -41 5 -124 -26 -112 -42 -189 -79 -199 -96 -10
-16 87 -103 164 -149 69 -40 160 -75 224 -85 28 -4 37 -11 37 -25 0 -23 -2
-23 -72 -9 -128 25 -255 94 -346 186 l-63 64 -66 -26 c-36 -15 -89 -29 -118
-32 -49 -5 -54 -4 -70 20 -25 39 -7 80 77 177 l70 82 -12 58 c-7 32 -11 89 -8
128 7 139 109 284 233 332 62 24 85 24 128 4z m672 -429 c-8 -33 -15 -102 -15
-153 0 -100 13 -142 52 -163 47 -25 144 -6 262 53 45 23 61 27 67 17 11 -19 4
-26 -59 -58 -125 -63 -255 -80 -306 -40 -41 32 -49 57 -55 159 l-6 95 -47 -66
c-87 -122 -223 -219 -306 -219 -65 0 -65 74 1 124 58 44 187 76 187 46 0 -25
24 -5 74 63 30 39 69 101 87 137 45 89 49 94 65 78 10 -11 10 -24 -1 -73z
m-1617 -257 c27 -50 61 -78 96 -78 42 0 164 35 254 72 67 28 102 31 102 10 0
-24 -235 -108 -331 -118 -70 -8 -111 11 -139 66 -12 24 -27 40 -38 40 -10 0
-54 -25 -97 -55 -44 -30 -82 -51 -86 -47 -7 7 7 122 16 130 12 12 37 -10 32
-28 -7 -26 -1 -25 58 10 68 41 111 40 133 -2z"/>
<path d="M1447 1625 c-60 -21 -128 -85 -172 -161 -39 -67 -40 -70 -40 -166 0
-59 4 -101 11 -108 15 -15 257 217 303 289 45 69 39 120 -16 149 -27 15 -38
15 -86 -3z"/>
<path d="M1173 1038 c-54 -58 -88 -113 -78 -128 10 -16 50 -11 120 14 37 13
69 26 71 29 3 3 -10 35 -28 72 l-34 66 -51 -53z"/>
<path d="M1890 983 c-64 -27 -106 -83 -62 -83 22 0 144 72 150 89 5 16 -46 13
-88 -6z"/>
</g>
</svg>
